<svg width="21" height="20" viewBox="0 0 21 20" fill="none" xmlns="http://www.w3.org/2000/svg">
<g clip-path="url(#clip0_304_34)">
<path fill-rule="evenodd" clip-rule="evenodd" d="M10.7613 0C5.13317 0 0.583374 4.58333 0.583374 10.2535C0.583374 14.786 3.49858 18.6227 7.54275 19.9806C8.04837 20.0827 8.23358 19.76 8.23358 19.4885C8.23358 19.2508 8.21692 18.436 8.21692 17.5871C5.38567 18.1983 4.79608 16.3648 4.79608 16.3648C4.34108 15.1765 3.66692 14.871 3.66692 14.871C2.74025 14.2429 3.73442 14.2429 3.73442 14.2429C4.76233 14.3108 5.30171 15.2954 5.30171 15.2954C6.2115 16.8571 7.67754 16.4158 8.26733 16.1442C8.3515 15.4821 8.62129 15.0237 8.90775 14.7692C6.64962 14.5315 4.27379 13.6488 4.27379 9.71021C4.27379 8.58979 4.67796 7.67312 5.31837 6.96021C5.21733 6.70562 4.86337 5.65292 5.41962 4.24396C5.41962 4.24396 6.279 3.97229 8.21671 5.29646C9.04631 5.07201 9.90186 4.95784 10.7613 4.95687C11.6207 4.95687 12.4967 5.07583 13.3057 5.29646C15.2436 3.97229 16.103 4.24396 16.103 4.24396C16.6592 5.65292 16.305 6.70562 16.204 6.96021C16.8613 7.67312 17.2488 8.58979 17.2488 9.71021C17.2488 13.6488 14.873 14.5144 12.598 14.7692C12.9688 15.0917 13.2888 15.7027 13.2888 16.6704C13.2888 18.0454 13.2721 19.149 13.2721 19.4883C13.2721 19.76 13.4575 20.0827 13.963 19.9808C18.0071 18.6225 20.9223 14.786 20.9223 10.2535C20.939 4.58333 16.3725 0 10.7613 0Z" fill="#24292F"/>
</g>
<defs>
<clipPath id="clip0_304_34">
<rect width="20.4167" height="20" fill="white" transform="translate(0.583374)"/>
</clipPath>
</defs>
</svg>
