<svg width="21" height="20" viewBox="0 0 21 20" fill="none" xmlns="http://www.w3.org/2000/svg">
<g clip-path="url(#clip0_304_50)">
<mask id="mask0_304_50" style="mask-type:luminance" maskUnits="userSpaceOnUse" x="0" y="0" width="21" height="20">
<path d="M20.4834 0H0.483398V20H20.4834V0Z" fill="white"/>
</mask>
<g mask="url(#mask0_304_50)">
<path d="M0.483398 9.6C0.483398 5.07452 0.483398 2.81178 1.88929 1.40589C3.29518 0 5.55792 0 10.0834 0H10.8834C15.4089 0 17.6716 0 19.0775 1.40589C20.4834 2.81178 20.4834 5.07452 20.4834 9.6V10.4C20.4834 14.9255 20.4834 17.1882 19.0775 18.5941C17.6716 20 15.4089 20 10.8834 20H10.0834C5.55792 20 3.29518 20 1.88929 18.5941C0.483398 17.1882 0.483398 14.9255 0.483398 10.4V9.6Z" fill="#0077FF"/>
<path d="M11.1251 14.4084C6.56678 14.4084 3.9668 11.2834 3.85846 6.0834H6.1418C6.2168 9.90006 7.9001 11.5167 9.23342 11.8501V6.0834H11.3835V9.37504C12.7002 9.23338 14.0833 7.7334 14.55 6.0834H16.7001C16.3417 8.11674 14.8417 9.61672 13.7751 10.2334C14.8417 10.7334 16.5501 12.0417 17.2001 14.4084H14.8334C14.3251 12.8251 13.0585 11.6001 11.3835 11.4334V14.4084H11.1251Z" fill="white"/>
</g>
</g>
<defs>
<clipPath id="clip0_304_50">
<rect width="20.2" height="20" fill="white" transform="translate(0.383423)"/>
</clipPath>
</defs>
</svg>
